<svg width="42" height="42" viewBox="0 0 42 42" fill="none" xmlns="http://www.w3.org/2000/svg">
<circle cx="21" cy="21" r="21" fill="white" fill-opacity="0.1"/>
<path d="M19.2939 25.3945C19.2939 24.3008 19.4079 23.4121 19.6357 22.7285C19.8636 22.0449 20.4196 21.1745 21.3037 20.1172L22.2607 18.8867C22.8988 17.9935 23.2178 17.0638 23.2178 16.0977C23.2178 15.1406 23.0173 14.3932 22.6162 13.8555C22.2243 13.3086 21.6592 13.0352 20.9209 13.0352C20.2282 13.0352 19.6494 13.2812 19.1846 13.7734C18.7288 14.2656 18.501 14.9264 18.501 15.7559H16.0947C16.113 14.252 16.5687 13.0534 17.4619 12.1602C18.3551 11.2669 19.5081 10.8203 20.9209 10.8203C22.3883 10.8203 23.5413 11.2806 24.3799 12.2012C25.2184 13.1217 25.6377 14.3932 25.6377 16.0156C25.6377 17.5651 25.0042 19.1191 23.7373 20.6777L22.4795 22.1953C21.96 22.9336 21.7002 24 21.7002 25.3945H19.2939ZM20.6064 28.2793C21.0622 28.2793 21.404 28.4206 21.6318 28.7031C21.8688 28.9766 21.9873 29.3184 21.9873 29.7285C21.9873 30.1387 21.8688 30.4805 21.6318 30.7539C21.404 31.0182 21.0622 31.1504 20.6064 31.1504C20.1416 31.1504 19.7952 31.0182 19.5674 30.7539C19.3486 30.4805 19.2393 30.1387 19.2393 29.7285C19.2393 29.3184 19.3486 28.9766 19.5674 28.7031C19.7952 28.4206 20.1416 28.2793 20.6064 28.2793Z" fill="#E7E7E7"/>
</svg>
